<mxfile host="app.diagrams.net" modified="2023-03-20T13:15:52.411Z" agent="5.0 (Windows NT 10.0; Win64; x64) AppleWebKit/537.36 (KHTML, like Gecko) Chrome/111.0.0.0 Safari/537.36" etag="BzOmhzNqqZ5M6t-Hk3wF" version="21.0.8" type="github">
  <diagram name="Página-1" id="F4w0jInqna9exMgk8Yrh">
    <mxGraphModel dx="1050" dy="573" grid="1" gridSize="10" guides="1" tooltips="1" connect="1" arrows="1" fold="1" page="1" pageScale="1" pageWidth="827" pageHeight="1169" math="0" shadow="0">
      <root>
        <mxCell id="0" />
        <mxCell id="1" parent="0" />
        <mxCell id="K6qRzpM-yzI5u-WLtIfR-43" value="" style="endArrow=classic;html=1;rounded=0;" edge="1" parent="1">
          <mxGeometry width="50" height="50" relative="1" as="geometry">
            <mxPoint x="140" y="404.32" as="sourcePoint" />
            <mxPoint x="200" y="404.32" as="targetPoint" />
          </mxGeometry>
        </mxCell>
        <mxCell id="K6qRzpM-yzI5u-WLtIfR-47" value="Alimentação" style="text;html=1;strokeColor=none;fillColor=none;align=center;verticalAlign=middle;whiteSpace=wrap;rounded=0;" vertex="1" parent="1">
          <mxGeometry x="140" y="371.65" width="60" height="30" as="geometry" />
        </mxCell>
        <mxCell id="K6qRzpM-yzI5u-WLtIfR-53" value="" style="rounded=0;whiteSpace=wrap;html=1;" vertex="1" parent="1">
          <mxGeometry x="211" y="366.33000000000004" width="380" height="120" as="geometry" />
        </mxCell>
        <mxCell id="K6qRzpM-yzI5u-WLtIfR-54" value="" style="rounded=0;whiteSpace=wrap;html=1;fillColor=#f5f5f5;strokeColor=#666666;gradientColor=#b3b3b3;" vertex="1" parent="1">
          <mxGeometry x="211" y="416.33000000000004" width="380" height="30" as="geometry" />
        </mxCell>
        <mxCell id="K6qRzpM-yzI5u-WLtIfR-90" value="" style="endArrow=classic;html=1;rounded=0;" edge="1" parent="1">
          <mxGeometry width="50" height="50" relative="1" as="geometry">
            <mxPoint x="380.5" y="410" as="sourcePoint" />
            <mxPoint x="379.99999999999994" y="460" as="targetPoint" />
          </mxGeometry>
        </mxCell>
        <mxCell id="K6qRzpM-yzI5u-WLtIfR-91" value="" style="endArrow=classic;html=1;rounded=0;" edge="1" parent="1">
          <mxGeometry width="50" height="50" relative="1" as="geometry">
            <mxPoint x="601" y="459.5" as="sourcePoint" />
            <mxPoint x="661" y="459.5" as="targetPoint" />
          </mxGeometry>
        </mxCell>
        <mxCell id="K6qRzpM-yzI5u-WLtIfR-92" value="" style="endArrow=classic;html=1;rounded=0;" edge="1" parent="1">
          <mxGeometry width="50" height="50" relative="1" as="geometry">
            <mxPoint x="601" y="393.49" as="sourcePoint" />
            <mxPoint x="661" y="393.49" as="targetPoint" />
          </mxGeometry>
        </mxCell>
        <mxCell id="K6qRzpM-yzI5u-WLtIfR-93" value="Membrana cerâmica" style="text;html=1;strokeColor=none;fillColor=none;align=center;verticalAlign=middle;whiteSpace=wrap;rounded=0;" vertex="1" parent="1">
          <mxGeometry x="211" y="416.33000000000004" width="110" height="30" as="geometry" />
        </mxCell>
        <mxCell id="K6qRzpM-yzI5u-WLtIfR-94" value="Retido" style="text;html=1;strokeColor=none;fillColor=none;align=center;verticalAlign=middle;whiteSpace=wrap;rounded=0;" vertex="1" parent="1">
          <mxGeometry x="601" y="360" width="60" height="30" as="geometry" />
        </mxCell>
        <mxCell id="K6qRzpM-yzI5u-WLtIfR-95" value="Permeado" style="text;html=1;strokeColor=none;fillColor=none;align=center;verticalAlign=middle;whiteSpace=wrap;rounded=0;" vertex="1" parent="1">
          <mxGeometry x="601" y="459.5" width="60" height="30" as="geometry" />
        </mxCell>
        <mxCell id="K6qRzpM-yzI5u-WLtIfR-52" value="" style="ellipse;whiteSpace=wrap;html=1;aspect=fixed;fillColor=#121111;" vertex="1" parent="1">
          <mxGeometry x="222.34000000000003" y="390" width="7.66" height="7.66" as="geometry" />
        </mxCell>
        <mxCell id="K6qRzpM-yzI5u-WLtIfR-51" value="" style="ellipse;whiteSpace=wrap;html=1;aspect=fixed;fillColor=#e51400;fontColor=#ffffff;strokeColor=#B20000;" vertex="1" parent="1">
          <mxGeometry x="237.67000000000004" y="380" width="10" height="10" as="geometry" />
        </mxCell>
        <mxCell id="K6qRzpM-yzI5u-WLtIfR-97" value="" style="ellipse;whiteSpace=wrap;html=1;aspect=fixed;fillColor=#e51400;fontColor=#ffffff;strokeColor=#B20000;" vertex="1" parent="1">
          <mxGeometry x="247.67000000000004" y="390" width="10" height="10" as="geometry" />
        </mxCell>
        <mxCell id="K6qRzpM-yzI5u-WLtIfR-98" value="" style="ellipse;whiteSpace=wrap;html=1;aspect=fixed;fillColor=#e51400;fontColor=#ffffff;strokeColor=#B20000;" vertex="1" parent="1">
          <mxGeometry x="303.00000000000006" y="370" width="10" height="10" as="geometry" />
        </mxCell>
        <mxCell id="K6qRzpM-yzI5u-WLtIfR-99" value="" style="ellipse;whiteSpace=wrap;html=1;aspect=fixed;fillColor=#e51400;fontColor=#ffffff;strokeColor=#B20000;" vertex="1" parent="1">
          <mxGeometry x="278.99000000000007" y="380" width="10" height="10" as="geometry" />
        </mxCell>
        <mxCell id="K6qRzpM-yzI5u-WLtIfR-102" value="" style="ellipse;whiteSpace=wrap;html=1;aspect=fixed;fillColor=#e51400;fontColor=#ffffff;strokeColor=#B20000;" vertex="1" parent="1">
          <mxGeometry x="289.6600000000001" y="400" width="10" height="10" as="geometry" />
        </mxCell>
        <mxCell id="K6qRzpM-yzI5u-WLtIfR-103" value="" style="ellipse;whiteSpace=wrap;html=1;aspect=fixed;fillColor=#e51400;fontColor=#ffffff;strokeColor=#B20000;" vertex="1" parent="1">
          <mxGeometry x="327.6700000000001" y="400" width="10" height="10" as="geometry" />
        </mxCell>
        <mxCell id="K6qRzpM-yzI5u-WLtIfR-104" value="" style="ellipse;whiteSpace=wrap;html=1;aspect=fixed;fillColor=#e51400;fontColor=#ffffff;strokeColor=#B20000;" vertex="1" parent="1">
          <mxGeometry x="342.33000000000004" y="380" width="10" height="10" as="geometry" />
        </mxCell>
        <mxCell id="K6qRzpM-yzI5u-WLtIfR-105" value="" style="ellipse;whiteSpace=wrap;html=1;aspect=fixed;fillColor=#121111;" vertex="1" parent="1">
          <mxGeometry x="269.33000000000004" y="400" width="7.66" height="7.66" as="geometry" />
        </mxCell>
        <mxCell id="K6qRzpM-yzI5u-WLtIfR-106" value="" style="ellipse;whiteSpace=wrap;html=1;aspect=fixed;fillColor=#121111;" vertex="1" parent="1">
          <mxGeometry x="319.33000000000004" y="382.34" width="7.66" height="7.66" as="geometry" />
        </mxCell>
        <mxCell id="K6qRzpM-yzI5u-WLtIfR-107" value="" style="ellipse;whiteSpace=wrap;html=1;aspect=fixed;fillColor=#121111;" vertex="1" parent="1">
          <mxGeometry x="543" y="397.66" width="7.66" height="7.66" as="geometry" />
        </mxCell>
        <mxCell id="K6qRzpM-yzI5u-WLtIfR-108" value="" style="ellipse;whiteSpace=wrap;html=1;aspect=fixed;fillColor=#e51400;fontColor=#ffffff;strokeColor=#B20000;" vertex="1" parent="1">
          <mxGeometry x="384.66" y="381.17" width="10" height="10" as="geometry" />
        </mxCell>
        <mxCell id="K6qRzpM-yzI5u-WLtIfR-109" value="" style="ellipse;whiteSpace=wrap;html=1;aspect=fixed;fillColor=#e51400;fontColor=#ffffff;strokeColor=#B20000;" vertex="1" parent="1">
          <mxGeometry x="362.33000000000004" y="400" width="10" height="10" as="geometry" />
        </mxCell>
        <mxCell id="K6qRzpM-yzI5u-WLtIfR-110" value="" style="ellipse;whiteSpace=wrap;html=1;aspect=fixed;fillColor=#e51400;fontColor=#ffffff;strokeColor=#B20000;" vertex="1" parent="1">
          <mxGeometry x="364.65999999999997" y="373.5" width="7.67" height="7.67" as="geometry" />
        </mxCell>
        <mxCell id="K6qRzpM-yzI5u-WLtIfR-111" value="" style="ellipse;whiteSpace=wrap;html=1;aspect=fixed;fillColor=#e51400;fontColor=#ffffff;strokeColor=#B20000;" vertex="1" parent="1">
          <mxGeometry x="416.1600000000001" y="395.32" width="10" height="10" as="geometry" />
        </mxCell>
        <mxCell id="K6qRzpM-yzI5u-WLtIfR-112" value="" style="ellipse;whiteSpace=wrap;html=1;aspect=fixed;fillColor=#e51400;fontColor=#ffffff;strokeColor=#B20000;" vertex="1" parent="1">
          <mxGeometry x="420.00000000000006" y="373.5" width="10" height="10" as="geometry" />
        </mxCell>
        <mxCell id="K6qRzpM-yzI5u-WLtIfR-113" value="" style="ellipse;whiteSpace=wrap;html=1;aspect=fixed;fillColor=#e51400;fontColor=#ffffff;strokeColor=#B20000;" vertex="1" parent="1">
          <mxGeometry x="440.6700000000001" y="400" width="10" height="10" as="geometry" />
        </mxCell>
        <mxCell id="K6qRzpM-yzI5u-WLtIfR-114" value="" style="ellipse;whiteSpace=wrap;html=1;aspect=fixed;fillColor=#e51400;fontColor=#ffffff;strokeColor=#B20000;" vertex="1" parent="1">
          <mxGeometry x="476.00000000000006" y="373.5" width="10" height="10" as="geometry" />
        </mxCell>
        <mxCell id="K6qRzpM-yzI5u-WLtIfR-115" value="" style="ellipse;whiteSpace=wrap;html=1;aspect=fixed;fillColor=#e51400;fontColor=#ffffff;strokeColor=#B20000;" vertex="1" parent="1">
          <mxGeometry x="450.67" y="372.34000000000003" width="10" height="10" as="geometry" />
        </mxCell>
        <mxCell id="K6qRzpM-yzI5u-WLtIfR-116" value="" style="ellipse;whiteSpace=wrap;html=1;aspect=fixed;fillColor=#e51400;fontColor=#ffffff;strokeColor=#B20000;" vertex="1" parent="1">
          <mxGeometry x="480.00000000000006" y="395.32" width="10" height="10" as="geometry" />
        </mxCell>
        <mxCell id="K6qRzpM-yzI5u-WLtIfR-117" value="" style="ellipse;whiteSpace=wrap;html=1;aspect=fixed;fillColor=#e51400;fontColor=#ffffff;strokeColor=#B20000;" vertex="1" parent="1">
          <mxGeometry x="505.83000000000004" y="380" width="10" height="10" as="geometry" />
        </mxCell>
        <mxCell id="K6qRzpM-yzI5u-WLtIfR-120" value="" style="ellipse;whiteSpace=wrap;html=1;aspect=fixed;fillColor=#e51400;fontColor=#ffffff;strokeColor=#B20000;" vertex="1" parent="1">
          <mxGeometry x="549.33" y="373.5" width="10" height="10" as="geometry" />
        </mxCell>
        <mxCell id="K6qRzpM-yzI5u-WLtIfR-121" value="" style="ellipse;whiteSpace=wrap;html=1;aspect=fixed;fillColor=#e51400;fontColor=#ffffff;strokeColor=#B20000;" vertex="1" parent="1">
          <mxGeometry x="515.83" y="397.65999999999997" width="10" height="10" as="geometry" />
        </mxCell>
        <mxCell id="K6qRzpM-yzI5u-WLtIfR-122" value="" style="ellipse;whiteSpace=wrap;html=1;aspect=fixed;fillColor=#e51400;fontColor=#ffffff;strokeColor=#B20000;" vertex="1" parent="1">
          <mxGeometry x="568.6600000000001" y="398.83" width="10" height="10" as="geometry" />
        </mxCell>
        <mxCell id="K6qRzpM-yzI5u-WLtIfR-123" value="" style="ellipse;whiteSpace=wrap;html=1;aspect=fixed;fillColor=#e51400;fontColor=#ffffff;strokeColor=#B20000;" vertex="1" parent="1">
          <mxGeometry x="526.5" y="373.5" width="10" height="10" as="geometry" />
        </mxCell>
        <mxCell id="K6qRzpM-yzI5u-WLtIfR-124" value="" style="ellipse;whiteSpace=wrap;html=1;aspect=fixed;fillColor=#121111;" vertex="1" parent="1">
          <mxGeometry x="264.6700000000001" y="375.84" width="7.66" height="7.66" as="geometry" />
        </mxCell>
        <mxCell id="K6qRzpM-yzI5u-WLtIfR-125" value="" style="ellipse;whiteSpace=wrap;html=1;aspect=fixed;fillColor=#121111;" vertex="1" parent="1">
          <mxGeometry x="240.01000000000005" y="402.34" width="7.66" height="7.66" as="geometry" />
        </mxCell>
        <mxCell id="K6qRzpM-yzI5u-WLtIfR-126" value="" style="ellipse;whiteSpace=wrap;html=1;aspect=fixed;fillColor=#121111;" vertex="1" parent="1">
          <mxGeometry x="309.33000000000004" y="402.34" width="7.66" height="7.66" as="geometry" />
        </mxCell>
        <mxCell id="K6qRzpM-yzI5u-WLtIfR-127" value="" style="ellipse;whiteSpace=wrap;html=1;aspect=fixed;fillColor=#121111;" vertex="1" parent="1">
          <mxGeometry x="394.66" y="402.34" width="7.66" height="7.66" as="geometry" />
        </mxCell>
        <mxCell id="K6qRzpM-yzI5u-WLtIfR-128" value="" style="ellipse;whiteSpace=wrap;html=1;aspect=fixed;fillColor=#121111;" vertex="1" parent="1">
          <mxGeometry x="298.66" y="383.51" width="7.66" height="7.66" as="geometry" />
        </mxCell>
        <mxCell id="K6qRzpM-yzI5u-WLtIfR-129" value="" style="ellipse;whiteSpace=wrap;html=1;aspect=fixed;fillColor=#121111;" vertex="1" parent="1">
          <mxGeometry x="371.51000000000005" y="387.65999999999997" width="7.66" height="7.66" as="geometry" />
        </mxCell>
        <mxCell id="K6qRzpM-yzI5u-WLtIfR-130" value="" style="ellipse;whiteSpace=wrap;html=1;aspect=fixed;fillColor=#121111;" vertex="1" parent="1">
          <mxGeometry x="450.6700000000001" y="387.65999999999997" width="7.66" height="7.66" as="geometry" />
        </mxCell>
        <mxCell id="K6qRzpM-yzI5u-WLtIfR-131" value="" style="ellipse;whiteSpace=wrap;html=1;aspect=fixed;fillColor=#121111;" vertex="1" parent="1">
          <mxGeometry x="493.00000000000006" y="368.17999999999995" width="7.66" height="7.66" as="geometry" />
        </mxCell>
        <mxCell id="K6qRzpM-yzI5u-WLtIfR-132" value="" style="ellipse;whiteSpace=wrap;html=1;aspect=fixed;fillColor=#121111;" vertex="1" parent="1">
          <mxGeometry x="222.34000000000003" y="459.5" width="7.66" height="7.66" as="geometry" />
        </mxCell>
        <mxCell id="K6qRzpM-yzI5u-WLtIfR-133" value="" style="ellipse;whiteSpace=wrap;html=1;aspect=fixed;fillColor=#121111;" vertex="1" parent="1">
          <mxGeometry x="282" y="467.15999999999997" width="7.66" height="7.66" as="geometry" />
        </mxCell>
        <mxCell id="K6qRzpM-yzI5u-WLtIfR-134" value="" style="ellipse;whiteSpace=wrap;html=1;aspect=fixed;fillColor=#121111;" vertex="1" parent="1">
          <mxGeometry x="321.6700000000001" y="451.84" width="7.66" height="7.66" as="geometry" />
        </mxCell>
        <mxCell id="K6qRzpM-yzI5u-WLtIfR-135" value="" style="ellipse;whiteSpace=wrap;html=1;aspect=fixed;fillColor=#121111;" vertex="1" parent="1">
          <mxGeometry x="311.6700000000001" y="470.66999999999996" width="7.66" height="7.66" as="geometry" />
        </mxCell>
        <mxCell id="K6qRzpM-yzI5u-WLtIfR-137" value="" style="ellipse;whiteSpace=wrap;html=1;aspect=fixed;fillColor=#121111;" vertex="1" parent="1">
          <mxGeometry x="334.6700000000001" y="470.6699999999999" width="7.66" height="7.66" as="geometry" />
        </mxCell>
        <mxCell id="K6qRzpM-yzI5u-WLtIfR-138" value="" style="ellipse;whiteSpace=wrap;html=1;aspect=fixed;fillColor=#121111;" vertex="1" parent="1">
          <mxGeometry x="390.00000000000006" y="467.1599999999999" width="7.66" height="7.66" as="geometry" />
        </mxCell>
        <mxCell id="K6qRzpM-yzI5u-WLtIfR-139" value="" style="ellipse;whiteSpace=wrap;html=1;aspect=fixed;fillColor=#121111;" vertex="1" parent="1">
          <mxGeometry x="408.50000000000006" y="451.8399999999999" width="7.66" height="7.66" as="geometry" />
        </mxCell>
        <mxCell id="K6qRzpM-yzI5u-WLtIfR-140" value="" style="ellipse;whiteSpace=wrap;html=1;aspect=fixed;fillColor=#121111;" vertex="1" parent="1">
          <mxGeometry x="420.00000000000006" y="470.6699999999999" width="7.66" height="7.66" as="geometry" />
        </mxCell>
        <mxCell id="K6qRzpM-yzI5u-WLtIfR-141" value="" style="ellipse;whiteSpace=wrap;html=1;aspect=fixed;fillColor=#121111;" vertex="1" parent="1">
          <mxGeometry x="360.6700000000001" y="470.6699999999999" width="7.66" height="7.66" as="geometry" />
        </mxCell>
        <mxCell id="K6qRzpM-yzI5u-WLtIfR-142" value="" style="ellipse;whiteSpace=wrap;html=1;aspect=fixed;fillColor=#121111;" vertex="1" parent="1">
          <mxGeometry x="446.99" y="459.4999999999999" width="7.66" height="7.66" as="geometry" />
        </mxCell>
        <mxCell id="K6qRzpM-yzI5u-WLtIfR-143" value="" style="ellipse;whiteSpace=wrap;html=1;aspect=fixed;fillColor=#121111;" vertex="1" parent="1">
          <mxGeometry x="472.34000000000003" y="467.1599999999999" width="7.66" height="7.66" as="geometry" />
        </mxCell>
        <mxCell id="K6qRzpM-yzI5u-WLtIfR-144" value="" style="ellipse;whiteSpace=wrap;html=1;aspect=fixed;fillColor=#121111;" vertex="1" parent="1">
          <mxGeometry x="503.84000000000003" y="459.4999999999999" width="7.66" height="7.66" as="geometry" />
        </mxCell>
        <mxCell id="K6qRzpM-yzI5u-WLtIfR-145" value="" style="ellipse;whiteSpace=wrap;html=1;aspect=fixed;fillColor=#121111;" vertex="1" parent="1">
          <mxGeometry x="528.84" y="470.6699999999999" width="7.66" height="7.66" as="geometry" />
        </mxCell>
        <mxCell id="K6qRzpM-yzI5u-WLtIfR-146" value="" style="ellipse;whiteSpace=wrap;html=1;aspect=fixed;fillColor=#121111;" vertex="1" parent="1">
          <mxGeometry x="552.34" y="459.4999999999999" width="7.66" height="7.66" as="geometry" />
        </mxCell>
        <mxCell id="K6qRzpM-yzI5u-WLtIfR-147" value="" style="ellipse;whiteSpace=wrap;html=1;aspect=fixed;fillColor=#121111;" vertex="1" parent="1">
          <mxGeometry x="250.01000000000005" y="459.4999999999999" width="7.66" height="7.66" as="geometry" />
        </mxCell>
        <mxCell id="K6qRzpM-yzI5u-WLtIfR-152" value="" style="endArrow=none;dashed=1;html=1;rounded=0;exitX=0.521;exitY=0.122;exitDx=0;exitDy=0;exitPerimeter=0;" edge="1" parent="1" source="K6qRzpM-yzI5u-WLtIfR-54">
          <mxGeometry width="50" height="50" relative="1" as="geometry">
            <mxPoint x="409" y="410" as="sourcePoint" />
            <mxPoint x="409" y="370" as="targetPoint" />
          </mxGeometry>
        </mxCell>
      </root>
    </mxGraphModel>
  </diagram>
</mxfile>
